<svg id="Layer_1" data-name="Layer 1" xmlns="http://www.w3.org/2000/svg" viewBox="0 0 272 267.2"><defs><style>.cls-1{fill:none;}</style></defs><title>Tyler_Trackshare logo_PNG</title><path class="cls-1" d="M121.94,94.88a3.32,3.32,0,0,0-1.43-6.48A39.83,39.83,0,0,0,90.2,118.71a3.31,3.31,0,0,0,2.52,4,3.62,3.62,0,0,0,.71.08,3.32,3.32,0,0,0,3.24-2.61A33.22,33.22,0,0,1,121.94,94.88Z"/><path class="cls-1" d="M113.42,62.85a3.31,3.31,0,1,0-1.54-6.45A72.64,72.64,0,0,0,58.2,110.08a3.32,3.32,0,0,0,2.45,4,4.25,4.25,0,0,0,.78.08,3.31,3.31,0,0,0,3.23-2.55A66,66,0,0,1,113.42,62.85Z"/><path class="cls-1" d="M117.69,78.86a3.32,3.32,0,1,0-1.5-6.46,56.22,56.22,0,0,0-42,42,3.32,3.32,0,0,0,2.48,4,3,3,0,0,0,.76.08,3.32,3.32,0,0,0,3.22-2.56A49.46,49.46,0,0,1,117.69,78.86Z"/><path class="cls-1" d="M182,149.88a3.32,3.32,0,0,0-6.48-1.43,33.19,33.19,0,0,1-25.26,25.26,3.31,3.31,0,1,0,1.41,6.48A39.83,39.83,0,0,0,182,149.88Z"/><path class="cls-1" d="M211.54,154.51a3.32,3.32,0,0,0-4,2.46,66,66,0,0,1-48.78,48.78,3.32,3.32,0,0,0,.76,6.54,3.14,3.14,0,0,0,.78-0.1A72.64,72.64,0,0,0,214,158.51,3.33,3.33,0,0,0,211.54,154.51Z"/><path class="cls-1" d="M198,154.2a3.33,3.33,0,0,0-2.48-4,3.29,3.29,0,0,0-4,2.48,49.52,49.52,0,0,1-37,37,3.31,3.31,0,0,0,.74,6.54,3.18,3.18,0,0,0,.76-0.08A56.22,56.22,0,0,0,198,154.2Z"/><path d="M136.09,34.8a99.5,99.5,0,1,0,99.5,99.5A99.61,99.61,0,0,0,136.09,34.8ZM64.64,111.62a3.31,3.31,0,0,1-3.23,2.55,4.25,4.25,0,0,1-.78-0.08,3.32,3.32,0,0,1-2.45-4A72.64,72.64,0,0,1,111.88,56.4a3.31,3.31,0,1,1,1.54,6.45A66,66,0,0,0,64.64,111.62Zm12.79,6.84a3,3,0,0,1-.76-0.08,3.32,3.32,0,0,1-2.48-4,56.22,56.22,0,0,1,42-42,3.32,3.32,0,1,1,1.5,6.46,49.46,49.46,0,0,0-37,37A3.32,3.32,0,0,1,77.44,118.46Zm16,4.29a3.62,3.62,0,0,1-.71-0.08,3.31,3.31,0,0,1-2.52-4A39.83,39.83,0,0,1,120.51,88.4a3.32,3.32,0,0,1,1.43,6.48,33.22,33.22,0,0,0-25.26,25.26A3.32,3.32,0,0,1,93.44,122.75Zm42.65,42.64a31.15,31.15,0,0,1-15-3.86,19.15,19.15,0,0,1-11,3.54,15.38,15.38,0,0,1-2.46-.18,2.42,2.42,0,0,1-.7-4.56,12.34,12.34,0,0,0,5.38-6.07A31.1,31.1,0,1,1,136.09,165.39ZM151,180.27a3.32,3.32,0,0,1-.71-6.56,33.19,33.19,0,0,0,25.26-25.26,3.32,3.32,0,0,1,6.48,1.43,39.83,39.83,0,0,1-30.33,30.31A3.32,3.32,0,0,1,151,180.27Zm4.27,16a3.31,3.31,0,0,1-.74-6.54,49.52,49.52,0,0,0,37-37,3.29,3.29,0,0,1,4-2.48,3.33,3.33,0,0,1,2.48,4,56.22,56.22,0,0,1-42,42A3.18,3.18,0,0,1,155.23,196.27Zm39.48-3.35a72.62,72.62,0,0,1-34.41,19.27,3.14,3.14,0,0,1-.78.1,3.32,3.32,0,0,1-.76-6.54A66,66,0,0,0,207.54,157a3.31,3.31,0,1,1,6.45,1.54A72.62,72.62,0,0,1,194.72,192.92Z"/></svg>